<svg xmlns="http://www.w3.org/2000/svg" width="16.03" height="14.25" viewBox="0 0 16.03 14.25">
  <metadata><?xpacket begin="﻿" id="W5M0MpCehiHzreSzNTczkc9d"?>
<x:xmpmeta xmlns:x="adobe:ns:meta/" x:xmptk="Adobe XMP Core 5.6-c142 79.160924, 2017/07/13-01:06:39        ">
   <rdf:RDF xmlns:rdf="http://www.w3.org/1999/02/22-rdf-syntax-ns#">
      <rdf:Description rdf:about=""/>
   </rdf:RDF>
</x:xmpmeta>
                                                                                                    
                                                                                                    
                                                                                                    
                                                                                                    
                                                                                                    
                                                                                                    
                                                                                                    
                                                                                                    
                                                                                                    
                                                                                                    
                                                                                                    
                                                                                                    
                                                                                                    
                                                                                                    
                                                                                                    
                                                                                                    
                                                                                                    
                                                                                                    
                                                                                                    
                                                                                                    
                           
<?xpacket end="w"?></metadata>
<defs>
    <style>
      .cls-1 {
        fill: #95e1d3;
        fill-rule: evenodd;
      }
    </style>
  </defs>
  <path id="SPEECH_BUBBLE_2" data-name="SPEECH BUBBLE 2" class="cls-1" d="M1257.42,9121.36a11.325,11.325,0,0,1-1.68-.25,6.357,6.357,0,0,1-5.65,2.23c2.44-1.15,2.39-3.07,1.96-3.32a5.609,5.609,0,0,1-3.07-4.76c0-3.4,3.73-6.14,8.44-6.14s7.57,2.74,7.57,6.14S1262.12,9121.36,1257.42,9121.36Zm-4.18-7.48a1.5,1.5,0,1,0,1.5,1.49A1.5,1.5,0,0,0,1253.24,9113.88Zm3.75,0a1.5,1.5,0,1,0,1.5,1.49A1.5,1.5,0,0,0,1256.99,9113.88Zm3.75,0a1.5,1.5,0,1,0,1.5,1.49A1.5,1.5,0,0,0,1260.74,9113.88Z" transform="translate(-1248.97 -9109.13)"/>
</svg>
