<?xml version="1.0" standalone="no"?>
<!DOCTYPE svg PUBLIC "-//W3C//DTD SVG 20010904//EN"
 "http://www.w3.org/TR/2001/REC-SVG-20010904/DTD/svg10.dtd">
<svg version="1.0" xmlns="http://www.w3.org/2000/svg"
 width="2752.000000pt" height="2752.000000pt" viewBox="0 0 2752.000000 2752.000000"
 preserveAspectRatio="xMidYMid meet">
<metadata>
Created by potrace 1.11, written by Peter Selinger 2001-2013
</metadata>
<g transform="translate(0.000000,2752.000000) scale(0.100000,-0.100000)"
fill="#000000" stroke="none">
<path d="M16497 17374 c-1 -1 -49 -5 -107 -8 -109 -7 -170 -12 -230 -20 -19
-3 -57 -8 -85 -11 -55 -6 -51 -6 -180 -30 -179 -33 -438 -100 -484 -124 -11
-7 -21 -10 -21 -7 0 6 -248 -83 -315 -114 -11 -5 -54 -23 -95 -41 -117 -49
-277 -130 -370 -188 -76 -48 -207 -140 -236 -166 -6 -5 -33 -28 -59 -50 -226
-187 -454 -487 -630 -829 -46 -89 -162 -344 -169 -371 -2 -5 -8 -21 -13 -35
-6 -14 -23 -61 -38 -105 -15 -44 -31 -89 -35 -100 -9 -21 -46 -144 -62 -205
-5 -19 -14 -53 -20 -75 -6 -22 -12 -50 -13 -62 -2 -12 -6 -27 -10 -33 -4 -6
-8 -21 -10 -33 -1 -12 -7 -47 -13 -77 -7 -30 -14 -70 -17 -87 -8 -52 -15 -91
-21 -125 -8 -42 -15 -113 -17 -160 -1 -21 -4 -38 -7 -38 -3 0 -5 -19 -6 -43
-1 -23 -4 -94 -9 -157 -15 -224 -6 -621 19 -805 2 -16 7 -57 10 -90 4 -33 9
-69 11 -80 2 -11 7 -36 10 -55 6 -44 13 -82 26 -147 6 -29 11 -56 11 -60 1 -8
34 -134 62 -238 40 -145 175 -490 226 -575 5 -8 24 -44 42 -80 19 -36 46 -84
61 -107 15 -24 27 -47 27 -53 0 -5 5 -10 10 -10 6 0 10 -5 10 -11 0 -6 11 -25
25 -43 14 -18 25 -36 25 -39 0 -4 6 -15 14 -24 8 -10 43 -56 77 -103 35 -47
66 -87 69 -90 3 -3 30 -34 60 -70 73 -86 249 -259 331 -325 36 -30 73 -60 80
-67 8 -7 22 -17 31 -23 9 -5 53 -36 99 -69 199 -140 447 -271 714 -377 17 -7
32 -13 35 -14 3 -1 14 -5 25 -9 114 -44 262 -91 307 -100 15 -2 31 -7 36 -10
5 -3 19 -7 33 -10 13 -3 35 -8 49 -11 134 -35 353 -73 509 -90 124 -14 255
-19 471 -18 220 1 318 4 445 17 125 13 220 24 220 26 0 2 28 7 75 13 62 9 263
53 290 64 8 3 18 6 22 5 8 -2 249 73 283 88 11 4 34 13 50 19 17 6 44 16 60
22 17 7 35 13 40 14 43 11 174 66 312 131 51 24 96 44 102 44 5 0 11 3 13 8 2
4 26 18 53 32 28 14 52 27 55 30 3 3 21 13 40 24 58 31 96 53 142 83 24 15 48
30 53 33 6 3 57 37 114 75 56 39 110 75 119 80 9 6 22 15 29 22 7 6 28 21 48
33 19 12 35 25 35 30 0 5 8 11 19 15 10 3 28 13 39 23 54 45 63 52 70 52 4 0
14 9 22 20 8 11 18 20 23 20 5 0 15 7 24 15 13 13 15 165 14 1268 0 688 0
1264 0 1280 l-1 27 -1453 0 c-800 0 -1456 -3 -1460 -6 -3 -3 -2 -16 3 -29 5
-13 6 -26 3 -29 -3 -3 -5 -52 -4 -108 1 -57 1 -110 1 -118 0 -8 0 -26 1 -40 0
-14 0 -31 0 -37 -1 -7 -1 -19 -2 -25 0 -7 1 -27 4 -43 2 -17 1 -39 -3 -50 -4
-11 -4 -29 0 -41 5 -11 5 -27 0 -34 -4 -7 -4 -25 0 -41 5 -15 6 -30 3 -33 -5
-5 -7 -83 -4 -153 1 -17 56 -18 1008 -18 l1008 0 0 -639 0 -639 -35 -26 c-19
-14 -37 -29 -40 -32 -12 -14 -128 -89 -139 -89 -6 0 -11 -4 -11 -8 0 -5 -10
-14 -22 -20 -13 -6 -59 -32 -103 -57 -89 -51 -362 -185 -405 -200 -3 -1 -16
-6 -30 -12 -14 -6 -28 -11 -33 -11 -4 -1 -20 -8 -35 -16 -50 -27 -196 -81
-272 -102 -94 -26 -251 -66 -275 -70 -16 -2 -39 -7 -49 -11 -11 -3 -33 -7 -50
-8 -17 -1 -51 -6 -76 -10 -204 -32 -634 -38 -830 -11 -19 3 -55 7 -80 10 -25
3 -58 8 -75 11 -40 7 -98 18 -110 21 -5 1 -21 4 -35 7 -14 3 -38 8 -55 12 -33
8 -211 62 -235 72 -8 3 -17 7 -20 8 -3 1 -23 9 -45 19 -22 10 -45 19 -51 20
-20 3 -189 89 -208 105 -10 9 -21 16 -25 15 -9 -1 -54 26 -134 79 -40 27 -87
57 -104 69 -18 11 -33 24 -33 29 0 5 -5 9 -12 9 -28 0 -238 202 -338 325 -36
44 -68 81 -72 83 -5 2 -8 10 -8 17 0 7 -3 15 -8 17 -29 12 -207 328 -263 466
-5 12 -13 33 -19 47 -5 14 -14 35 -20 48 -24 59 -99 329 -114 412 -3 17 -7 41
-10 55 -3 14 -8 41 -10 60 -3 19 -7 44 -10 55 -6 29 -23 188 -32 305 -9 105
-9 560 0 650 14 152 16 165 20 186 2 12 7 45 11 75 7 56 11 87 20 129 3 14 8
41 11 60 4 19 8 42 10 50 29 130 44 190 54 215 6 17 11 31 11 33 -1 1 -1 3 0
5 0 1 2 12 5 24 10 54 109 333 122 343 4 3 17 24 30 48 12 23 32 61 45 85 12
23 25 44 28 47 3 3 16 25 30 50 13 25 30 51 37 58 6 7 12 19 12 27 0 7 3 15 8
17 4 2 34 42 66 91 32 48 62 87 65 87 4 0 14 13 24 29 25 43 242 260 312 313
225 170 499 307 752 376 146 40 170 46 239 56 22 4 46 8 54 11 8 2 35 7 60 10
25 2 55 7 68 9 93 19 565 28 672 12 30 -4 71 -9 90 -11 84 -9 136 -16 150 -22
8 -3 31 -7 50 -10 33 -5 218 -57 250 -70 8 -3 17 -7 20 -7 8 -2 73 -27 115
-46 22 -9 58 -23 80 -30 40 -13 215 -98 225 -109 3 -3 37 -27 75 -53 101 -68
227 -183 305 -278 25 -30 48 -57 51 -60 27 -24 214 -348 208 -362 0 -2 5 -16
11 -33 7 -16 16 -39 20 -50 4 -11 13 -33 20 -50 18 -44 83 -249 94 -296 0 -4
37 4 81 17 44 13 91 26 105 28 14 3 41 10 60 15 130 36 197 54 208 54 6 0 12
3 12 6 0 4 10 8 23 9 25 2 62 10 62 12 0 1 7 3 15 5 8 2 49 13 90 25 41 11 82
22 90 24 8 2 29 7 45 12 38 9 45 20 34 53 -4 14 -10 37 -12 51 -2 14 -6 32 -9
40 -5 13 -50 174 -54 190 0 3 -3 12 -7 20 -5 14 -29 88 -32 100 -1 3 -6 16
-12 30 -6 14 -19 45 -28 70 -57 145 -210 421 -256 460 -3 3 -10 13 -15 22 -32
59 -257 288 -395 402 -102 85 -302 212 -430 273 -106 51 -375 161 -414 169 -5
1 -39 12 -75 24 -36 12 -72 23 -80 25 -8 2 -49 12 -90 23 -41 11 -88 23 -105
25 -16 3 -55 10 -85 17 -30 6 -66 12 -80 14 -167 27 -171 27 -335 41 -70 7
-463 13 -468 9z"/>
<path d="M53 17281 l-22 -6 0 -3438 c0 -2976 2 -3438 15 -3433 8 3 14 0 14 -6
0 -9 3 -9 12 0 7 7 17 8 29 2 11 -7 20 -7 24 0 3 5 11 7 18 4 22 -8 108 -10
113 -2 3 5 10 6 15 2 15 -9 89 -10 89 -2 0 4 10 4 23 -1 13 -5 30 -5 39 0 9 5
19 5 22 1 3 -5 26 -6 51 -2 25 4 45 4 45 1 0 -3 31 -6 70 -6 38 0 70 3 70 7 0
4 11 3 25 -2 17 -6 25 -6 25 1 0 6 5 7 10 4 15 -9 100 -11 100 -3 0 4 10 4 23
-1 13 -5 30 -5 39 0 10 6 19 6 22 0 3 -5 21 -6 40 -1 18 4 40 3 49 -1 10 -6
18 -5 22 1 4 7 12 7 24 0 10 -5 21 -7 25 -3 8 8 76 10 76 1 0 -4 13 -3 30 2
16 5 30 5 30 0 0 -4 15 -4 34 0 19 4 40 4 47 -1 7 -4 20 -4 28 1 14 7 16 276
16 2699 0 2828 -1 2763 40 2541 4 -19 11 -46 16 -60 4 -14 11 -36 13 -50 3
-14 19 -81 36 -150 18 -69 33 -132 35 -140 1 -8 8 -35 15 -60 7 -25 14 -54 16
-65 2 -11 8 -38 15 -60 6 -22 17 -65 24 -95 7 -30 25 -102 40 -160 14 -58 28
-115 30 -127 2 -11 8 -36 14 -55 10 -32 50 -191 55 -219 1 -8 5 -23 9 -34 3
-11 8 -31 11 -45 4 -21 182 -741 203 -820 3 -14 7 -29 8 -35 2 -5 8 -30 15
-55 7 -25 14 -55 16 -67 2 -12 8 -33 13 -45 5 -13 9 -26 9 -31 1 -15 14 -73
23 -102 8 -26 43 -168 54 -215 1 -8 8 -35 15 -60 7 -25 14 -55 16 -68 3 -12
18 -75 35 -140 17 -64 32 -126 35 -137 4 -23 32 -139 64 -265 12 -47 23 -92
25 -100 2 -8 11 -44 20 -80 9 -36 19 -76 22 -89 2 -14 6 -28 9 -32 2 -4 8 -27
13 -51 5 -24 25 -107 45 -185 20 -77 38 -152 40 -165 3 -12 5 -23 6 -23 1 0 3
-7 5 -15 2 -8 11 -44 20 -80 9 -36 20 -83 25 -105 5 -22 16 -67 25 -100 9 -33
18 -68 20 -78 2 -10 6 -26 9 -35 3 -9 7 -28 10 -42 3 -14 9 -38 14 -55 5 -16
7 -36 5 -42 -3 -7 0 -13 6 -13 6 0 11 -10 11 -22 0 -13 7 -44 15 -70 8 -27 12
-48 9 -48 -3 0 0 -8 5 -17 5 -10 12 -31 15 -48 9 -47 34 -150 36 -150 1 0 3
-9 5 -20 2 -11 9 -40 15 -65 6 -25 13 -52 15 -61 2 -9 9 -34 15 -56 l12 -40
44 7 c24 4 44 4 44 1 0 -7 167 -4 186 3 8 3 14 2 14 -2 0 -8 84 -7 97 1 5 3
15 2 23 -3 7 -4 23 -4 36 0 12 5 25 6 28 3 8 -9 76 -9 76 -1 0 4 10 4 23 -1
13 -5 30 -5 39 0 9 5 19 5 22 1 3 -5 26 -6 51 -2 25 4 45 4 45 1 0 -8 126 -5
139 3 5 4 12 2 16 -4 4 -6 12 -7 24 -1 9 5 23 6 29 2 7 -4 33 -5 57 -1 25 4
45 4 45 1 0 -6 123 -4 153 3 9 2 17 0 17 -4 0 -5 13 -5 30 0 16 5 30 6 30 2 0
-4 16 -7 35 -7 36 0 43 8 49 58 2 12 6 29 10 37 5 13 55 207 71 275 3 11 7 29
10 40 10 46 84 330 85 330 1 0 3 10 6 22 2 13 20 85 40 160 19 76 37 145 39
153 2 8 33 132 70 275 36 143 68 267 70 275 2 8 11 44 20 80 10 36 19 74 21
85 2 11 17 71 34 134 17 63 32 124 35 135 2 12 25 102 50 201 26 99 49 187 50
195 2 8 4 16 5 18 3 3 4 6 14 57 4 22 7 40 6 40 -1 0 4 14 10 30 7 17 13 37
15 45 2 8 11 44 20 80 9 36 18 76 21 90 3 14 8 34 11 45 4 11 8 25 9 30 1 6
37 145 79 310 42 165 78 308 81 318 2 9 6 25 9 35 12 43 33 134 41 171 3 13
10 34 16 45 6 12 11 22 10 24 -1 1 -2 3 -1 5 0 1 3 12 5 25 2 12 6 32 8 45 2
12 5 22 6 22 1 0 3 7 5 15 2 8 7 26 10 40 3 14 8 36 11 50 3 14 10 41 16 60
13 39 17 55 20 88 1 12 7 22 12 22 5 0 7 2 4 6 -3 3 0 26 8 51 8 25 11 49 8
54 -3 5 0 9 7 9 7 0 10 3 7 6 -4 3 -2 20 3 37 6 18 12 43 15 57 3 14 14 59 26
100 11 41 22 83 24 93 18 77 30 126 59 232 14 55 28 111 31 125 3 13 16 67 30
120 14 52 27 102 29 110 2 8 11 44 20 80 9 36 19 72 21 80 2 8 7 29 12 45 5
18 9 -1064 9 -2665 0 -1482 3 -2696 7 -2697 3 -2 9 -3 14 -2 29 4 49 3 64 -3
9 -5 20 -4 23 2 4 7 12 7 24 0 10 -5 21 -7 25 -3 8 8 76 10 76 1 0 -4 14 -3
30 2 16 5 30 5 30 1 0 -4 27 -4 60 -1 33 3 60 3 60 -1 0 -4 13 -4 30 1 16 5
30 6 30 2 0 -8 68 -7 76 1 3 3 17 2 30 -3 14 -6 26 -6 29 0 3 5 15 6 27 1 12
-4 39 -5 60 -1 21 4 38 4 38 -1 0 -4 13 -4 30 1 16 5 30 6 30 2 0 -8 68 -7 76
1 3 3 17 2 30 -3 14 -6 26 -6 29 0 3 5 15 6 27 1 12 -4 37 -5 55 -1 18 5 33 5
33 1 0 -6 107 -4 126 3 6 2 17 0 24 -4 7 -5 24 -4 36 0 14 6 26 5 29 -1 4 -5
10 -7 15 -4 5 3 8 1553 8 3444 l0 3439 -33 4 c-19 2 -43 0 -54 -4 -12 -4 -21
-4 -21 0 0 8 -72 8 -86 0 -5 -3 -18 -2 -29 2 -11 4 -29 4 -40 0 -11 -4 -29 -4
-40 0 -11 4 -30 4 -41 -1 -12 -4 -25 -5 -28 -2 -7 7 -130 8 -142 1 -5 -3 -18
-2 -29 2 -11 4 -29 4 -40 0 -11 -4 -29 -4 -40 0 -11 4 -30 4 -41 -1 -12 -4
-25 -5 -28 -2 -8 8 -66 10 -66 2 0 -4 -16 -3 -35 1 -19 4 -37 4 -40 -1 -3 -4
-16 -5 -28 0 -12 5 -31 5 -42 1 -11 -4 -29 -4 -40 0 -11 4 -29 4 -40 0 -11 -4
-24 -5 -29 -2 -5 3 -37 5 -71 5 -34 0 -66 -2 -71 -5 -5 -3 -18 -2 -29 2 -11 4
-29 4 -40 0 -11 -4 -29 -4 -40 0 -11 4 -30 4 -41 -1 -12 -4 -25 -5 -28 -2 -8
8 -66 10 -66 2 0 -4 -16 -3 -35 1 -19 4 -37 4 -40 -1 -3 -4 -16 -5 -28 0 -12
5 -31 5 -42 1 -11 -4 -29 -4 -40 0 -11 4 -29 4 -40 0 -11 -4 -24 -5 -29 -2 -5
3 -37 5 -71 5 -34 0 -66 -2 -71 -5 -5 -3 -18 -2 -29 2 -11 4 -29 4 -40 0 -11
-4 -29 -4 -40 0 -11 4 -30 4 -42 -1 -13 -5 -23 -5 -23 -1 0 4 -16 7 -35 7 -19
0 -35 -3 -35 -6 0 -3 -10 -5 -22 -5 -21 1 -27 -10 -43 -79 -2 -11 -23 -87 -45
-170 -23 -82 -43 -157 -45 -165 -2 -8 -20 -76 -40 -150 -20 -74 -38 -142 -40
-150 -1 -8 -5 -22 -8 -30 -3 -8 -24 -87 -47 -175 -23 -88 -50 -191 -61 -230
-11 -38 -22 -81 -25 -95 -3 -14 -28 -107 -56 -208 -27 -101 -51 -191 -53 -200
-2 -9 -4 -17 -5 -17 -1 0 -3 -7 -5 -15 -1 -9 -35 -137 -75 -285 -40 -149 -74
-277 -75 -285 -2 -8 -4 -15 -5 -15 -1 0 -3 -7 -5 -15 -7 -37 -36 -146 -42
-160 -3 -8 -7 -23 -8 -32 -2 -10 -3 -19 -4 -20 -3 -5 -61 -222 -67 -248 -2
-14 -7 -32 -10 -40 -3 -8 -18 -62 -34 -120 -45 -168 -101 -384 -105 -400 -2
-8 -20 -73 -39 -143 -20 -71 -38 -138 -40 -150 -3 -12 -17 -65 -31 -117 -15
-52 -29 -102 -30 -110 -2 -8 -11 -42 -20 -75 -18 -65 -36 -135 -85 -320 -17
-66 -34 -127 -37 -135 -3 -8 -7 -22 -9 -30 -2 -8 -17 -67 -34 -130 -18 -63
-32 -121 -32 -128 -3 -31 -19 15 -63 178 -26 96 -51 191 -55 210 -5 19 -25 96
-45 170 -20 74 -39 142 -40 150 -2 8 -11 40 -19 70 -42 156 -115 432 -127 480
-7 30 -18 58 -24 62 -5 4 -7 8 -4 8 5 0 -66 295 -71 295 -1 0 -3 7 -5 15 -1 8
-19 76 -39 150 -21 74 -39 146 -42 160 -3 14 -12 49 -21 79 -8 29 -17 61 -18
70 -2 9 -4 17 -5 19 -2 1 -3 5 -4 10 -1 4 -5 16 -9 27 -3 11 -8 31 -11 45 -3
14 -37 142 -76 285 -39 143 -72 269 -75 280 -2 11 -10 44 -18 73 -9 29 -15 53
-16 55 0 1 -2 9 -4 17 -3 8 -15 53 -27 100 -11 47 -24 92 -27 100 -3 8 -7 22
-9 30 -3 16 -42 165 -49 190 -4 14 -20 72 -29 110 -17 64 -72 272 -92 345 -14
50 -27 98 -29 108 -2 10 -7 27 -10 37 -3 10 -8 27 -10 37 -2 10 -23 86 -45
168 -23 83 -43 157 -45 165 -2 8 -13 51 -25 95 -38 139 -41 150 -44 170 -2 11
-8 32 -14 46 -6 15 -8 30 -5 33 7 7 3 7 -57 8 -22 1 -43 -2 -46 -5 -3 -3 -16
-2 -28 2 -11 5 -30 5 -41 1 -11 -4 -29 -4 -40 0 -11 4 -29 4 -40 0 -11 -4 -24
-5 -29 -2 -5 3 -37 5 -71 5 -34 0 -66 -2 -71 -5 -5 -3 -18 -2 -29 2 -11 4 -29
4 -40 0 -11 -4 -29 -4 -40 0 -11 4 -30 4 -41 -1 -12 -4 -25 -5 -28 -2 -8 8
-66 10 -66 2 0 -4 -16 -3 -35 1 -19 4 -37 4 -40 -1 -3 -4 -16 -5 -28 0 -12 5
-31 5 -42 1 -11 -4 -29 -4 -40 0 -11 4 -29 4 -40 0 -11 -4 -24 -5 -29 -2 -5 3
-37 5 -71 5 -34 0 -66 -2 -71 -5 -5 -3 -18 -2 -29 2 -11 4 -29 4 -40 0 -11 -4
-29 -4 -40 0 -11 4 -30 4 -41 -1 -12 -4 -25 -5 -28 -2 -8 8 -66 10 -66 2 0 -4
-16 -3 -35 1 -19 4 -37 4 -40 -1 -3 -4 -16 -5 -28 0 -12 5 -31 5 -42 1 -11 -4
-29 -4 -40 0 -11 4 -29 4 -40 0 -11 -4 -24 -5 -29 -2 -14 8 -66 8 -66 1 0 -4
-16 -3 -35 1 -19 4 -37 4 -40 -1 -3 -4 -16 -5 -28 0 -12 5 -31 5 -42 1 -11 -4
-24 -5 -29 -2 -12 7 -131 6 -142 0 -5 -3 -18 -2 -29 2 -11 4 -30 4 -42 -1 -12
-4 -23 -5 -25 0 -2 4 -13 5 -25 2z"/>
<path d="M9827 15484 c-2 -2 -37 -6 -78 -9 -75 -6 -99 -8 -179 -19 -57 -8
-198 -35 -255 -50 -5 -2 -23 -6 -40 -10 -16 -4 -48 -14 -70 -23 -22 -8 -40
-14 -40 -13 0 7 -146 -52 -243 -97 -153 -72 -329 -187 -425 -277 -15 -14 -30
-26 -33 -26 -6 0 -181 -177 -226 -228 -21 -24 -52 -64 -70 -90 -18 -26 -36
-49 -39 -52 -41 -36 -199 -333 -249 -470 -7 -19 -18 -48 -25 -65 -24 -55 -87
-289 -89 -327 0 -10 -3 -18 -6 -18 -4 0 -7 -6 -8 -12 0 -7 -3 -31 -7 -53 -3
-22 -8 -53 -10 -70 -2 -16 -4 -30 -5 -30 -3 0 -10 -40 -16 -94 -3 -30 -7 -63
-9 -73 -6 -29 -17 -192 -20 -300 -1 -53 -6 -101 -9 -106 -4 -6 -2 -13 3 -17 7
-3 7 -15 1 -30 -6 -15 -6 -27 0 -30 6 -3 6 -15 0 -30 -5 -14 -6 -25 -2 -25 4
0 8 -53 8 -118 2 -153 12 -312 29 -442 4 -30 9 -66 10 -80 1 -14 7 -50 13 -80
6 -30 13 -71 16 -90 3 -20 19 -89 36 -155 17 -66 33 -127 35 -135 7 -33 66
-187 82 -215 9 -16 16 -31 14 -33 -5 -5 113 -232 121 -232 4 0 8 -4 8 -10 0
-8 56 -96 70 -110 3 -3 17 -21 31 -40 69 -91 203 -226 319 -320 30 -25 61 -51
68 -57 7 -7 17 -13 21 -13 4 0 16 -8 27 -18 26 -24 165 -111 244 -154 54 -28
170 -80 265 -118 90 -36 288 -91 380 -105 221 -34 286 -39 495 -38 221 0 355
8 450 28 13 2 40 7 60 10 47 7 293 73 335 90 11 5 42 17 69 27 27 11 70 28 95
40 25 11 47 20 49 19 1 -1 14 7 29 19 14 11 30 20 35 20 4 0 27 12 51 27 56
35 149 96 162 106 112 82 207 157 243 190 97 90 207 206 270 287 37 47 71 90
77 97 5 7 16 19 23 28 7 8 9 15 5 15 -4 0 -3 4 3 8 13 9 74 109 74 121 0 5 4
11 9 13 15 5 107 209 144 318 38 112 72 235 81 295 2 11 11 56 20 100 9 44 18
100 21 125 2 25 7 61 9 80 14 101 22 202 31 378 2 51 7 97 10 102 3 6 3 10 -2
10 -6 0 -9 112 -2 130 1 3 1 8 0 13 -1 4 -3 73 -6 155 -4 143 -10 225 -21 307
-3 22 -7 56 -9 75 -2 19 -6 50 -9 68 -3 17 -8 47 -12 65 -36 213 -117 463
-210 650 -18 37 -31 67 -28 67 2 0 -4 10 -16 22 -11 12 -20 25 -20 30 0 7 -66
112 -102 163 -24 34 -130 159 -174 205 -29 30 -65 69 -81 85 -80 86 -272 237
-394 310 -94 56 -350 173 -414 189 -5 2 -17 6 -25 9 -29 10 -205 56 -235 61
-16 2 -37 6 -45 9 -8 3 -40 9 -70 12 -57 7 -76 10 -170 21 -54 7 -447 13 -453
8z m368 -678 c70 -9 115 -17 150 -26 17 -5 57 -16 90 -26 276 -77 578 -306
751 -567 113 -170 209 -418 248 -642 3 -16 8 -41 11 -55 3 -14 7 -45 10 -70 3
-25 7 -56 10 -70 3 -14 7 -65 10 -115 2 -49 5 -90 6 -90 1 0 3 -105 3 -232 1
-128 -1 -233 -4 -233 -3 0 -5 -26 -6 -58 0 -56 -10 -173 -18 -222 -3 -14 -7
-44 -10 -68 -3 -24 -7 -46 -10 -50 -2 -4 -7 -27 -10 -52 -7 -50 -13 -84 -16
-87 -3 -3 -4 -7 -14 -48 -10 -41 -45 -156 -53 -175 -3 -8 -7 -17 -8 -20 -34
-97 -153 -317 -198 -365 -7 -7 -23 -27 -37 -45 -106 -135 -299 -289 -470 -375
-90 -45 -291 -112 -340 -113 -8 0 -26 -3 -39 -6 -47 -11 -128 -17 -221 -17
-82 0 -215 6 -215 11 0 1 -18 4 -40 6 -52 7 -80 12 -80 14 0 1 -8 3 -17 6 -31
7 -72 19 -138 39 -3 1 -16 7 -30 12 -77 34 -106 45 -110 45 -3 0 -16 9 -29 19
-13 11 -28 19 -33 19 -12 0 -132 81 -136 92 -2 4 -9 8 -15 8 -7 0 -42 28 -79
63 -38 35 -68 62 -68 60 0 -1 -19 19 -42 45 -24 26 -50 54 -58 62 -81 80 -200
293 -260 464 -28 80 -75 259 -85 326 -3 19 -7 46 -10 60 -41 230 -52 716 -21
980 9 68 15 116 21 154 4 21 8 48 9 60 2 11 8 39 14 61 6 22 14 56 17 75 3 19
15 62 26 94 10 33 19 64 19 69 0 5 6 23 14 40 69 162 91 207 132 277 27 45 56
90 66 100 10 11 18 22 18 24 0 19 188 205 269 266 18 14 39 31 46 38 8 6 18
12 24 12 6 0 11 4 11 9 0 5 8 11 18 15 9 3 24 10 32 16 39 25 122 70 132 70 6
0 19 6 27 13 15 13 159 62 206 71 11 2 31 7 45 10 52 12 87 17 155 23 39 3 71
6 73 8 4 4 204 -3 257 -9z"/>
<path d="M22597 15484 c-2 -2 -98 -12 -167 -19 -52 -5 -172 -27 -275 -49 -209
-47 -459 -151 -635 -264 -201 -129 -441 -351 -554 -512 -17 -25 -34 -47 -37
-50 -41 -36 -199 -333 -249 -470 -7 -19 -18 -48 -25 -65 -12 -27 -69 -224 -81
-275 -2 -11 -6 -29 -9 -40 -15 -62 -21 -92 -30 -165 -2 -16 -4 -30 -5 -30 -3
0 -10 -40 -16 -94 -3 -30 -7 -63 -9 -73 -6 -29 -17 -194 -20 -294 -1 -50 -5
-95 -8 -101 -3 -5 -2 -15 3 -23 5 -8 5 -21 -1 -31 -6 -11 -5 -20 1 -24 6 -3 6
-15 0 -29 -5 -13 -6 -26 -4 -29 3 -3 7 -69 10 -148 2 -79 6 -159 9 -179 3 -19
7 -57 10 -85 15 -131 25 -206 41 -285 8 -41 17 -86 20 -100 3 -14 9 -38 14
-55 5 -16 11 -41 14 -55 19 -103 113 -364 182 -510 51 -107 153 -283 166 -288
4 -2 8 -8 8 -13 0 -27 137 -186 249 -289 270 -248 671 -449 1028 -515 15 -2
39 -7 53 -10 14 -3 41 -7 60 -10 19 -3 45 -7 57 -9 129 -26 564 -26 713 -1 14
2 45 7 70 11 68 10 81 12 130 24 25 7 54 13 65 16 122 24 393 127 548 207 115
60 127 67 171 105 8 6 20 12 26 12 6 0 13 7 16 15 3 8 14 17 25 20 10 4 25 12
31 18 7 7 38 32 68 57 102 83 228 204 305 294 28 32 58 68 69 80 47 54 189
282 234 376 46 96 130 327 137 375 1 11 7 38 13 60 15 57 42 190 48 240 2 24
7 53 9 65 2 12 7 48 10 79 3 31 8 72 11 91 8 51 12 132 20 340 7 219 7 171 -1
360 -6 160 -7 167 -20 285 -4 39 -9 81 -10 95 -2 14 -4 25 -5 25 -1 0 -3 11
-5 25 -11 82 -16 111 -29 166 -8 34 -18 74 -21 90 -7 35 -7 34 -30 109 -10 33
-20 65 -21 70 -4 21 -48 133 -72 185 -14 30 -26 57 -27 60 -4 24 -90 176 -150
265 -143 213 -281 357 -552 576 -7 5 -13 6 -13 2 0 -4 -4 -3 -8 2 -22 33 -250
160 -387 217 -67 28 -245 88 -245 82 0 -2 -8 0 -18 5 -20 11 -29 13 -147 36
-11 2 -44 8 -74 14 -30 6 -56 9 -59 6 -3 -2 -12 -1 -21 4 -27 14 -187 24 -399
26 -112 0 -204 0 -205 -1z m388 -677 c82 -9 205 -36 285 -63 68 -23 218 -90
230 -104 3 -3 15 -11 28 -17 12 -7 32 -19 45 -25 12 -7 24 -15 27 -18 3 -3 32
-27 66 -52 57 -44 206 -187 247 -238 32 -39 112 -162 144 -221 40 -74 113
-255 128 -319 2 -8 13 -53 25 -100 12 -47 23 -94 25 -105 5 -35 16 -99 21
-125 3 -14 7 -43 8 -65 2 -22 8 -76 12 -120 15 -150 8 -619 -11 -760 -2 -16
-7 -52 -10 -80 -4 -27 -8 -57 -10 -65 -3 -8 -7 -35 -10 -60 -3 -25 -8 -53 -11
-62 -3 -9 -7 -26 -9 -37 -10 -46 -13 -58 -25 -101 -45 -173 -147 -391 -238
-513 -177 -235 -409 -410 -666 -502 -53 -19 -100 -34 -104 -34 -4 0 -27 -5
-52 -10 -141 -33 -309 -42 -469 -26 -84 8 -80 7 -176 29 -157 37 -293 96 -435
192 -52 35 -113 80 -135 100 -22 20 -49 44 -60 53 -27 22 -113 117 -150 165
-17 21 -36 45 -42 52 -7 7 -13 15 -13 19 0 4 -13 25 -28 48 -15 23 -34 56 -42
72 -8 17 -19 33 -25 37 -5 4 -6 8 -1 8 4 0 2 10 -6 23 -46 71 -129 337 -153
487 -3 19 -7 46 -10 60 -41 226 -51 730 -21 980 12 95 16 127 22 155 3 17 7
44 9 60 1 17 5 37 9 45 3 8 12 44 20 80 16 72 51 194 65 225 4 11 24 57 44
102 37 87 119 230 149 263 10 11 18 22 18 24 0 14 165 182 229 234 25 20 55
45 65 54 11 10 28 20 38 24 10 3 18 9 18 14 0 4 8 10 18 14 9 3 24 10 32 16
39 25 122 70 132 70 6 0 19 6 27 13 9 8 50 24 91 36 41 13 86 27 100 32 14 5
42 11 64 15 21 3 48 8 60 10 11 3 53 8 91 11 39 3 71 6 72 7 5 4 196 -2 248
-7z"/>
</g>
</svg>
