<?xml version="1.0" encoding="utf-8"?>
<!-- Generator: Adobe Illustrator 24.0.1, SVG Export Plug-In . SVG Version: 6.00 Build 0)  -->
<svg version="1.1" id="Слой_1" xmlns="http://www.w3.org/2000/svg" xmlns:xlink="http://www.w3.org/1999/xlink" x="0px" y="0px"
	 viewBox="0 0 86 23" style="enable-background:new 0 0 86 23;" xml:space="preserve">
<style type="text/css">
	.st0{enable-background:new    ;}
	.st1{fill:#FFFFFF;}
</style>
<g class="st0">
	<path class="st1" d="M0.1,22V0.5h6.5l3.9,14.6l3.9-14.6h6.5V22h-4V5.1L12.6,22H8.4L4.2,5.1V22H0.1z"/>
</g>
<g>
	<path d="M24,14.2c0-2.9,0.8-5,2.4-6.4c1.3-1.2,3-1.7,4.9-1.7c2.1,0,3.9,0.7,5.2,2.1c1.4,1.4,2,3.3,2,5.8c0,2-0.3,3.6-0.9,4.7
		s-1.5,2-2.6,2.7s-2.4,1-3.8,1c-2.2,0-3.9-0.7-5.3-2.1S24,16.8,24,14.2z M26.7,14.2c0,2,0.4,3.5,1.3,4.5s2,1.5,3.3,1.5
		c1.3,0,2.4-0.5,3.3-1.5s1.3-2.5,1.3-4.6c0-1.9-0.4-3.4-1.3-4.4s-2-1.5-3.3-1.5c-1.3,0-2.4,0.5-3.3,1.5S26.7,12.2,26.7,14.2z"/>
</g>
<g class="st0">
	<path d="M52,13.6v-2.5l9.1,0v8c-1.4,1.1-2.8,2-4.3,2.5c-1.5,0.6-3,0.8-4.6,0.8c-2.1,0-4-0.5-5.7-1.4c-1.7-0.9-3-2.2-3.9-3.9
		s-1.3-3.6-1.3-5.7c0-2.1,0.4-4,1.3-5.9s2.1-3.2,3.8-4s3.5-1.3,5.7-1.3c1.6,0,3,0.3,4.2,0.8c1.3,0.5,2.2,1.2,3,2.1s1.3,2.1,1.6,3.5
		l-2.6,0.7c-0.3-1.1-0.7-2-1.2-2.6S55.9,3.5,55,3.2c-0.9-0.4-1.9-0.6-3-0.6c-1.3,0-2.4,0.2-3.4,0.6c-0.9,0.4-1.7,0.9-2.3,1.6
		c-0.6,0.6-1,1.4-1.4,2.1c-0.5,1.3-0.8,2.8-0.8,4.3c0,1.9,0.3,3.5,1,4.8c0.7,1.3,1.6,2.2,2.9,2.9s2.6,0.9,4,0.9
		c1.2,0,2.4-0.2,3.6-0.7c1.2-0.5,2.1-1,2.7-1.5v-4H52z"/>
</g>
<g>
	<path d="M64,14.2c0-2.9,0.8-5,2.4-6.4c1.3-1.2,3-1.7,4.9-1.7c2.1,0,3.9,0.7,5.2,2.1c1.4,1.4,2,3.3,2,5.8c0,2-0.3,3.6-0.9,4.7
		c-0.6,1.1-1.5,2-2.6,2.7c-1.1,0.6-2.4,1-3.8,1c-2.2,0-3.9-0.7-5.3-2.1C64.7,18.9,64,16.8,64,14.2z M66.7,14.2c0,2,0.4,3.5,1.3,4.5
		s2,1.5,3.3,1.5c1.3,0,2.4-0.5,3.3-1.5s1.3-2.5,1.3-4.6c0-1.9-0.4-3.4-1.3-4.4c-0.9-1-2-1.5-3.3-1.5c-1.3,0-2.4,0.5-3.3,1.5
		S66.7,12.2,66.7,14.2z"/>
</g>
</svg>
