<?xml version="1.0" encoding="utf-8"?>
<!-- Generator: Adobe Illustrator 24.0.1, SVG Export Plug-In . SVG Version: 6.00 Build 0)  -->
<svg version="1.1" id="Слой_1" xmlns="http://www.w3.org/2000/svg" xmlns:xlink="http://www.w3.org/1999/xlink" x="0px" y="0px"
	 viewBox="0 0 131 34" style="enable-background:new 0 0 131 34;" xml:space="preserve">
<style type="text/css">
	.st0{enable-background:new    ;}
	.st1{fill:#CCCCCC;}
</style>
<g class="st0">
	<path class="st1" d="M0.6,33.3V0.4h9.9l6,22.5l5.9-22.5h10v32.9h-6.2V7.4l-6.5,25.9h-6.4L6.8,7.4v25.9H0.6z"/>
	<path class="st1" d="M37.5,21c0-2.1,0.5-4.1,1.5-6.1c1-2,2.5-3.5,4.4-4.5c1.9-1,4-1.5,6.3-1.5c3.6,0,6.6,1.2,8.9,3.5
		c2.3,2.3,3.5,5.3,3.5,8.9c0,3.6-1.2,6.6-3.5,9c-2.3,2.4-5.3,3.6-8.8,3.6c-2.2,0-4.3-0.5-6.3-1.5c-2-1-3.5-2.4-4.5-4.3
		C38,26.1,37.5,23.8,37.5,21z M44,21.4c0,2.4,0.6,4.2,1.7,5.4s2.5,1.9,4.2,1.9s3-0.6,4.1-1.9c1.1-1.3,1.7-3.1,1.7-5.5
		c0-2.3-0.6-4.1-1.7-5.4c-1.1-1.3-2.5-1.9-4.1-1.9s-3,0.6-4.2,1.9C44.5,17.2,44,19,44,21.4z"/>
	<path class="st1" d="M82.4,21.2v-5.5h14.3v13.1c-1.4,1.3-3.4,2.5-6.1,3.6s-5.3,1.5-8,1.5c-3.4,0-6.4-0.7-9-2.2
		c-2.6-1.4-4.5-3.5-5.8-6.2S66,19.9,66,16.7c0-3.4,0.7-6.5,2.2-9.1s3.5-4.7,6.3-6.1c2.1-1.1,4.7-1.6,7.9-1.6c4.1,0,7.3,0.9,9.6,2.6
		c2.3,1.7,3.8,4.1,4.4,7.1l-6.6,1.2c-0.5-1.6-1.3-2.9-2.6-3.8c-1.3-0.9-2.9-1.4-4.8-1.4c-2.9,0-5.2,0.9-6.9,2.8
		c-1.7,1.8-2.6,4.6-2.6,8.2c0,3.9,0.9,6.8,2.6,8.8c1.7,2,4,2.9,6.8,2.9c1.4,0,2.8-0.3,4.2-0.8c1.4-0.5,2.6-1.2,3.6-2v-4.2H82.4z"/>
	<path class="st1" d="M101.4,21c0-2.1,0.5-4.1,1.5-6.1c1-2,2.5-3.5,4.4-4.5c1.9-1,4-1.5,6.3-1.5c3.6,0,6.6,1.2,8.9,3.5
		s3.5,5.3,3.5,8.9c0,3.6-1.2,6.6-3.5,9s-5.3,3.6-8.8,3.6c-2.2,0-4.3-0.5-6.3-1.5c-2-1-3.5-2.4-4.5-4.3
		C101.9,26.1,101.4,23.8,101.4,21z M107.8,21.4c0,2.4,0.6,4.2,1.7,5.4s2.5,1.9,4.2,1.9s3-0.6,4.1-1.9s1.7-3.1,1.7-5.5
		c0-2.3-0.6-4.1-1.7-5.4c-1.1-1.3-2.5-1.9-4.1-1.9s-3,0.6-4.2,1.9C108.4,17.2,107.8,19,107.8,21.4z"/>
</g>
</svg>
